<?xml version="1.0" standalone="no"?>
<!DOCTYPE svg PUBLIC "-//W3C//DTD SVG 20010904//EN"
 "http://www.w3.org/TR/2001/REC-SVG-20010904/DTD/svg10.dtd">
<svg version="1.0" xmlns="http://www.w3.org/2000/svg"
 width="360.000000pt" height="360.000000pt" viewBox="0 0 360.000000 360.000000"
 preserveAspectRatio="xMidYMid meet">
<metadata>
Created by potrace 1.11, written by Peter Selinger 2001-2013
</metadata>
<g transform="translate(0.000000,360.000000) scale(0.100000,-0.100000)"
fill="#000000" stroke="none">
<path d="M2011 2449 c-141 -18 -266 -93 -363 -217 -67 -84 -128 -270 -128
-386 l0 -68 -32 6 c-33 6 -126 21 -228 36 -259 37 -397 58 -477 71 -38 6 -93
14 -123 19 -30 5 -89 14 -130 20 -41 6 -100 15 -130 20 -30 5 -84 13 -120 19
-36 6 -94 15 -130 20 -36 5 -84 12 -107 16 l-43 8 0 -66 0 -66 53 -10 c28 -5
81 -14 117 -20 36 -5 97 -14 135 -20 64 -10 260 -40 410 -62 103 -15 295 -44
393 -60 37 -6 92 -14 122 -19 30 -5 87 -13 125 -19 39 -6 93 -14 120 -17 59
-8 71 -16 80 -52 30 -125 150 -302 255 -381 19 -14 37 -29 40 -32 17 -21 142
-71 212 -86 70 -14 95 -15 161 -5 178 26 330 143 412 317 137 289 55 664 -193
885 -70 62 -217 136 -290 144 -29 4 -58 8 -65 10 -6 2 -41 0 -76 -5z"/>
</g>
</svg>
